<?xml version="1.0" standalone="no"?>
<!DOCTYPE svg PUBLIC "-//W3C//DTD SVG 20010904//EN"
 "http://www.w3.org/TR/2001/REC-SVG-20010904/DTD/svg10.dtd">
<svg version="1.0" xmlns="http://www.w3.org/2000/svg"
 width="16.000000pt" height="16.000000pt" viewBox="0 0 16.000000 16.000000"
 preserveAspectRatio="xMidYMid meet">
<metadata>
Created by potrace 1.11, written by Peter Selinger 2001-2013
</metadata>
<g transform="translate(0.000000,16.000000) scale(0.008743,-0.008743)"
fill="#000000" stroke="none">
<path d="M738 1470 c-104 -22 -163 -43 -240 -86 -94 -53 -150 -95 -214 -159
-171 -173 -257 -383 -256 -630 0 -123 22 -252 45 -267 7 -4 89 -8 183 -8 179
0 184 1 197 45 85 299 91 347 55 450 -25 70 -26 59 25 220 42 131 73 215 86
228 18 18 14 -13 -24 -165 -51 -199 -37 -195 20 7 33 113 43 139 55 143 13 5
12 -5 -26 -197 -26 -130 -26 -171 0 -80 14 50 61 212 73 252 3 9 9 17 14 17
14 0 11 -23 -21 -180 -25 -126 -30 -165 -16 -149 1 2 17 67 35 144 18 77 34
147 36 155 2 8 4 17 4 20 1 2 5 0 11 -6 6 -6 3 -55 -10 -138 -11 -71 -20 -141
-20 -155 0 -61 -22 -106 -75 -156 -29 -27 -60 -66 -70 -85 -24 -47 -90 -344
-80 -360 3 -4 58 -7 122 -6 l118 1 18 36 c9 20 25 73 34 119 13 68 14 91 5
127 -18 65 -15 89 23 235 80 303 153 460 224 483 30 9 28 -11 -18 -178 -21
-78 -55 -212 -76 -297 -20 -85 -48 -195 -62 -245 -45 -159 -66 -254 -59 -270
4 -13 25 -14 126 -12 66 2 121 5 123 8 8 9 67 235 67 254 0 11 -14 39 -30 63
-76 113 -42 342 66 442 36 33 51 40 85 40 123 0 168 -212 82 -390 -26 -55 -89
-124 -121 -134 -28 -9 -41 -41 -67 -158 -18 -85 -21 -114 -12 -120 15 -10 568
-10 583 0 21 14 54 183 54 275 0 53 -33 227 -56 295 -40 119 -112 231 -214
332 -213 211 -514 301 -802 240z"/>
</g>
</svg>
